<svg width="1516" height="862" xmlns="http://www.w3.org/2000/svg" xmlns:xlink="http://www.w3.org/1999/xlink" overflow="hidden"><defs><clipPath id="clip0"><rect x="1870" y="-942" width="1516" height="862"/></clipPath><radialGradient cx="-0.25" cy="-0.25" r="4.81062e+06" fx="0" fy="0" gradientUnits="userSpaceOnUse" spreadMethod="pad" id="fill1" gradientTransform="matrix(0.000360892 0 0 0.000360892 1870 -942)"><stop offset="0" stop-color="#7E7E7E"/><stop offset="0.5" stop-color="#B6B6B6"/><stop offset="0.68" stop-color="#FFFFFF"/><stop offset="1" stop-color="#FFFFFF"/></radialGradient></defs><g clip-path="url(#clip0)" transform="translate(-1870 942)"><rect x="1870" y="-942" width="1507" height="862" fill="url(#fill1)"/><text fill="#2E75B6" font-family="Franklin Gothic Medium,Franklin Gothic Medium_MSFontService,sans-serif" font-weight="400" font-size="275" transform="matrix(1 0 0 1 2679.07 -411)">@<tspan fill="#0070C0" font-family="VAG World,VAG World_MSFontService,sans-serif" font-weight="700" font-size="165" x="210.454" y="-30">limpe</tspan></text><path d="M2217-833C2217-862.823 2241.18-887 2271-887L2271-887C2300.82-887 2325-862.823 2325-833L2325-659C2325-629.177 2300.82-605 2271-605L2271-605C2241.18-605 2217-629.177 2217-659Z" fill="#F2F2F2" fill-rule="evenodd"/><path d="M2377-691.5C2377-721.599 2401.4-746 2431.5-746L2431.5-746C2461.6-746 2486-721.599 2486-691.5L2486-518.5C2486-488.401 2461.6-464 2431.5-464L2431.5-464C2401.4-464 2377-488.401 2377-518.5Z" fill="#F2F2F2" fill-rule="evenodd"/><path d="M2537-555.5C2537-585.6 2561.4-610 2591.5-610L2591.5-610C2621.6-610 2646-585.6 2646-555.5L2646-382.5C2646-352.4 2621.6-328 2591.5-328L2591.5-328C2561.4-328 2537-352.4 2537-382.5Z" fill="#F2F2F2" fill-rule="evenodd"/></g></svg>